<svg xmlns="http://www.w3.org/2000/svg" viewBox="0 0 100 100" width="100" height="100">
  <circle cx="50" cy="50" r="45" fill="#9c7a4d" />
  <circle cx="50" cy="50" r="38" fill="#f9f5f0" />
  <g fill="#9c7a4d">
    <!-- Fork icon -->
    <path d="M35 25 L35 55 L40 55 L42.5 75 L37.5 75 L37.5 80 L47.5 80 L47.5 75 L42.5 75 L40 55 L45 55 L45 35 C45 30 40 25 35 25 Z" />
    <!-- Knife icon -->
    <path d="M55 25 C65 25 68 40 65 55 L60 55 L57.5 75 L62.5 75 L62.5 80 L52.5 80 L52.5 75 L57.5 75 L60 55 L55 55 C52 40 52 30 55 25 Z" />
    <!-- Plate edge -->
    <path d="M25 50 A25 25 0 0 0 75 50" stroke="#9c7a4d" stroke-width="2" fill="none"/>
  </g>
</svg>
